<?xml version="1.0" encoding="UTF-8"?>
<svg width="120" height="120" viewBox="0 0 120 120" fill="none" xmlns="http://www.w3.org/2000/svg">
    <!-- Фон -->
    <rect width="120" height="120" rx="28" fill="url(#gradient)"/>
    
    <!-- Иконка -->
    <g transform="translate(24, 24)">
        <!-- Левый пузырь -->
        <path d="M24 60C37.2548 60 48 49.2548 48 36C48 22.7452 37.2548 12 24 12C10.7452 12 0 22.7452 0 36C0 41.7289 1.89986 47.0461 5.12772 51.3744L2.30769 69L19.9333 66.1799C21.2098 66.3878 22.5862 66.5 24 66.5C24.8354 66.5 25.6577 66.4502 26.4634 66.3539" fill="white"/>
        
        <!-- Правый пузырь -->
        <path d="M48 24C61.2548 24 72 34.7452 72 48C72 61.2548 61.2548 72 48 72C46.5862 72 45.2098 71.8878 43.9333 71.6799L26.3077 74.5L29.1277 56.8744C25.8999 52.5461 24 47.2289 24 41.5C24 28.2452 34.7452 17.5 48 17.5C48.8354 17.5 49.6577 17.5498 50.4634 17.6461" fill="white"/>
    </g>
    
    <!-- Градиент -->
    <defs>
        <linearGradient id="gradient" x1="0" y1="0" x2="120" y2="120" gradientUnits="userSpaceOnUse">
            <stop offset="0%" style="stop-color:#007AFF"/>
            <stop offset="100%" style="stop-color:#5856D6"/>
        </linearGradient>
    </defs>
</svg> 