<?xml version="1.0" encoding="UTF-8" standalone="no"?>
<svg width="1024" height="1024" viewBox="0 0 1024 1024" xmlns="http://www.w3.org/2000/svg">
  <defs>
    <linearGradient id="grad1" x1="0%" y1="0%" x2="100%" y2="100%">
      <stop offset="0%" style="stop-color:#4A90E2;stop-opacity:1" />
      <stop offset="100%" style="stop-color:#1E3A8A;stop-opacity:1" />
    </linearGradient>
  </defs>
  <rect x="0" y="0" width="1024" height="1024" rx="224" ry="224" fill="url(#grad1)"/>
  <g transform="translate(512,512)" fill="white">
    <path d="M-200,-100 L200,-100 A20,20 0 0 1 220,-80 L220,80 A20,20 0 0 1 200,100 L-200,100 A20,20 0 0 1 -220,80 L-220,-80 A20,20 0 0 1 -200,-100 Z" opacity="0.9"/>
    <path d="M-160,0 L160,0" stroke="url(#grad1)" stroke-width="40" stroke-linecap="round"/>
    <circle cx="-80" cy="0" r="20" fill="url(#grad1)"/>
    <circle cx="80" cy="0" r="20" fill="url(#grad1)"/>
  </g>
</svg> 